<svg width="29" height="29" viewBox="0 0 29 29" fill="none" xmlns="http://www.w3.org/2000/svg">
<path d="M3.10052 14.049C3.10189 19.7927 7.31157 24.6833 13.0291 25.5834V17.4233H10.0436V14.049H13.0327V11.4804C12.899 10.2633 13.3181 9.05022 14.1761 8.17028C15.0341 7.29033 16.2422 6.83468 17.4727 6.9269C18.3559 6.94105 19.2369 7.0191 20.1087 7.16041V10.0315H18.6213C18.1092 9.96491 17.5943 10.1327 17.2218 10.4876C16.8492 10.8425 16.6593 11.346 16.7054 11.8564V14.049H19.9663L19.445 17.4245H16.7054V25.5834C22.8889 24.6139 27.2249 19.0109 26.5723 12.8337C25.9197 6.65645 20.5068 2.06741 14.2552 2.39112C8.00348 2.71482 3.10152 7.83796 3.10052 14.049Z" fill="#2F313D"/>
</svg>
