<svg width="31" height="30" viewBox="0 0 31 30" fill="none" xmlns="http://www.w3.org/2000/svg">
<path d="M15.7281 26.1059C12.6954 26.1059 12.3379 26.09 11.1543 26.0386C10.2314 26.0085 9.32042 25.8224 8.4606 25.4882C6.97296 24.9138 5.79663 23.7463 5.21826 22.2701C4.8944 21.4139 4.71972 20.5093 4.7017 19.595C4.63266 18.4232 4.63266 18.0391 4.63266 15.0534C4.63266 12.0358 4.64869 11.6836 4.7017 10.5155C4.72011 9.60239 4.89479 8.69907 5.21826 7.84407C5.796 6.36591 6.97424 5.19735 8.4643 4.6247C9.32561 4.30203 10.2363 4.12827 11.1568 4.11097C12.3342 4.04492 12.7213 4.04492 15.7281 4.04492C18.7856 4.04492 19.1369 4.06082 20.302 4.11097C21.2248 4.12842 22.1379 4.30216 23.0019 4.6247C24.4915 5.198 25.6695 6.36633 26.2479 7.84407C26.5772 8.71153 26.7528 9.62897 26.7669 10.5558C26.836 11.7276 26.836 12.1105 26.836 15.095C26.836 18.0795 26.8187 18.4709 26.7669 19.6292C26.7486 20.5444 26.5735 21.4498 26.2491 22.3068C25.6693 23.784 24.4912 24.9519 23.0019 25.5261C22.1392 25.8468 21.2279 26.0201 20.3069 26.0386C19.1295 26.1059 18.7437 26.1059 15.7281 26.1059ZM15.6862 5.98119C12.6707 5.98119 12.3576 5.99587 11.1802 6.04846C10.4775 6.0577 9.78156 6.18636 9.12263 6.42887C8.14962 6.79827 7.37969 7.55906 7.0034 8.52292C6.75709 9.1838 6.62739 9.88183 6.61998 10.5864C6.55464 11.7716 6.55464 12.0823 6.55464 15.0534C6.55464 17.989 6.56574 18.3449 6.61998 19.5228C6.63102 20.2203 6.76065 20.9109 7.0034 21.5655C7.38024 22.5287 8.15004 23.289 9.12263 23.6583C9.78111 23.9025 10.4773 24.0312 11.1802 24.0388C12.3736 24.1072 12.688 24.1072 15.6862 24.1072C18.7104 24.1072 19.0235 24.0926 20.191 24.0388C20.8942 24.0303 21.5907 23.9016 22.2498 23.6583C23.2169 23.2858 23.9819 22.5273 24.358 21.568C24.6038 20.9065 24.7335 20.2082 24.7414 19.5033H24.7549C24.808 18.3339 24.808 18.022 24.808 15.0338C24.808 12.0456 24.7944 11.7313 24.7414 10.5632C24.7303 9.86651 24.6007 9.17672 24.358 8.52292C23.9827 7.56222 23.2177 6.80229 22.2498 6.42887C21.5908 6.18514 20.8943 6.05644 20.191 6.04846C18.9988 5.98119 18.6869 5.98119 15.6862 5.98119ZM15.7281 20.7032C13.4227 20.7047 11.3435 19.328 10.4601 17.2153C9.57669 15.1025 10.0632 12.6699 11.6926 11.0518C13.3221 9.43368 15.7736 8.94891 17.9038 9.82355C20.034 10.6982 21.4233 12.7599 21.4238 15.0473C21.4204 18.1676 18.8732 20.6971 15.7281 20.7032ZM15.7281 11.3753C13.6855 11.3753 12.0297 13.0182 12.0297 15.0448C12.0297 17.0714 13.6855 18.7143 15.7281 18.7143C17.7708 18.7143 19.4266 17.0714 19.4266 15.0448C19.4219 13.0202 17.7688 11.38 15.7281 11.3753ZM21.6457 10.5032C20.9127 10.5005 20.3203 9.90949 20.3217 9.18222C20.323 8.45495 20.9177 7.86609 21.6507 7.86609C22.3837 7.86609 22.9783 8.45494 22.9797 9.18221C22.98 9.53309 22.8395 9.86965 22.5892 10.1175C22.3389 10.3654 21.9994 10.5042 21.6457 10.5032Z" fill="#2F313D"/>
</svg>
