<svg width="28" height="28" viewBox="0 0 28 28" fill="none" xmlns="http://www.w3.org/2000/svg">
<g clip-path="url(#clip0_502_500)">
<path fill-rule="evenodd" clip-rule="evenodd" d="M13.6004 0.703125C21.0158 0.703125 27.0494 5.80071 27.0494 12.0677C27.0494 14.5762 26.1164 16.8344 24.1663 19.0593C21.3453 22.4414 15.036 26.5604 13.6004 27.1906C12.205 27.8033 12.3664 26.8457 12.4303 26.4676L12.4353 26.4361L12.627 25.237C12.6724 24.8799 12.7194 24.325 12.5833 23.9713C12.432 23.581 11.8368 23.3779 11.3997 23.2799C4.93578 22.3924 0.151276 17.6851 0.151276 12.0677C0.151276 5.80071 6.18655 0.703125 13.6004 0.703125ZM8.59393 14.1578H6.0302V9.3123C6.0302 9.24017 6.00281 9.17098 5.95399 9.11981C5.90517 9.06865 5.83889 9.03968 5.76963 9.03921H4.82483C4.79039 9.03921 4.75629 9.04628 4.72447 9.06C4.69265 9.07372 4.66374 9.09384 4.63939 9.1192C4.61503 9.14456 4.59572 9.17466 4.58254 9.20779C4.56936 9.24092 4.56257 9.27644 4.56257 9.3123V15.4147C4.56257 15.4865 4.59115 15.5547 4.63654 15.602V15.6038L4.6399 15.6073L4.64327 15.6108C4.69202 15.6596 4.75719 15.6866 4.82483 15.686H8.59393C8.73851 15.686 8.85451 15.5635 8.85451 15.4129V14.4326C8.85473 14.3968 8.84817 14.3612 8.83519 14.328C8.82222 14.2948 8.80308 14.2645 8.77889 14.239C8.75469 14.2135 8.7259 14.1932 8.69417 14.1793C8.66243 14.1653 8.62837 14.158 8.59393 14.1578ZM9.92371 9.03921H10.8685C11.0131 9.03921 11.1291 9.16175 11.1291 9.3123V15.4147C11.1291 15.5652 11.0114 15.686 10.8685 15.686H9.92371C9.85445 15.686 9.78799 15.6575 9.73886 15.6067C9.68972 15.5558 9.6619 15.4868 9.66145 15.4147V9.3123C9.66145 9.16175 9.77913 9.03921 9.92371 9.03921ZM16.4179 9.03921H17.3594C17.5056 9.03921 17.6233 9.16175 17.6233 9.3123V15.4147C17.6233 15.5652 17.5056 15.686 17.3611 15.686H16.4179C16.3952 15.6862 16.3726 15.6832 16.3507 15.6773H16.3473C16.3411 15.6752 16.3349 15.6728 16.3288 15.6703L16.3204 15.6668L16.3087 15.6615C16.304 15.6595 16.2995 15.6572 16.2952 15.6545L16.2902 15.6528L16.2734 15.6423L16.2717 15.6405C16.2454 15.6222 16.2227 15.5991 16.2044 15.5722L13.5146 11.7911V15.4147C13.5148 15.4505 13.5083 15.4859 13.4953 15.5191C13.4823 15.5522 13.4631 15.5823 13.4389 15.6077C13.4147 15.6331 13.3859 15.6532 13.3541 15.667C13.3224 15.6807 13.2884 15.6878 13.254 15.6878H12.3109C12.2417 15.6878 12.1752 15.6592 12.1261 15.6084C12.0769 15.5576 12.0491 15.4886 12.0487 15.4164V9.3123C12.0487 9.16175 12.1663 9.03921 12.3109 9.03921H13.2641L13.2725 9.04096H13.2826L13.2877 9.04271H13.2977L13.3146 9.04797H13.3179L13.3213 9.04972L13.3381 9.05497L13.3465 9.05847C13.3517 9.06051 13.3567 9.06285 13.3616 9.06547L13.3667 9.06722L13.37 9.06897C13.3776 9.07312 13.3849 9.0778 13.3919 9.08298L13.3969 9.08648L13.4053 9.09173V9.09348C13.4087 9.09348 13.4104 9.09698 13.4121 9.09873C13.4167 9.10198 13.4212 9.10548 13.4255 9.10923L13.4306 9.11449C13.4449 9.12824 13.4579 9.14349 13.4692 9.16L16.1557 12.9394V9.3123C16.1557 9.16175 16.2734 9.03921 16.4179 9.03921ZM22.8315 10.2944C22.8315 10.4449 22.7138 10.5674 22.5709 10.5674H20.0055V11.6003H22.5692C22.7138 11.6003 22.8298 11.7228 22.8298 11.8716V12.8536C22.8298 13.0042 22.7121 13.1267 22.5692 13.1267H20.0055V14.1596H22.5692C22.7138 14.1596 22.8298 14.2821 22.8298 14.4309V15.4129C22.8298 15.5635 22.7121 15.686 22.5692 15.686H18.8001C18.7658 15.6862 18.7318 15.6793 18.7001 15.6658C18.6684 15.6523 18.6395 15.6324 18.6152 15.6073L18.6118 15.602C18.5649 15.5518 18.5384 15.4847 18.5378 15.4147V9.3123C18.5378 9.23878 18.5664 9.17225 18.6101 9.12499L18.6152 9.11974L18.6169 9.11799C18.6656 9.06762 18.7314 9.03931 18.8001 9.03921H22.5692C22.7138 9.03921 22.8298 9.16175 22.8298 9.3123V10.2944H22.8315Z" fill="#2F313D"/>
</g>
<defs>
<clipPath id="clip0_502_500">
<rect width="26.8981" height="26.6872" fill="white" transform="translate(0.151367 0.703125)"/>
</clipPath>
</defs>
</svg>
