<svg width="29" height="29" viewBox="0 0 29 29" fill="none" xmlns="http://www.w3.org/2000/svg">
<path d="M23.7444 7.84494C24.7993 7.21923 25.5886 6.23397 25.965 5.07314C24.9737 5.65669 23.8891 6.06776 22.7582 6.28857C21.1902 4.64292 18.7059 4.24245 16.6935 5.31092C14.681 6.37939 13.6386 8.6523 14.1488 10.8596C10.0884 10.6573 6.30541 8.75437 3.74121 5.62423C2.40301 7.91431 3.08686 10.8418 5.304 12.3144C4.50226 12.2888 3.7183 12.0734 3.01749 11.6862C3.01749 11.7072 3.01749 11.7283 3.01749 11.7493C3.01795 14.1348 4.71251 16.1896 7.06919 16.6624C6.32553 16.8631 5.54548 16.8927 4.78856 16.7488C5.45133 18.7888 7.34638 20.1864 9.50633 20.2281C7.7174 21.6212 5.50814 22.3766 3.23402 22.3729C2.83093 22.3735 2.42816 22.3505 2.0278 22.3041C4.33713 23.7764 7.0249 24.5579 9.76993 24.5551C13.5889 24.5812 17.2591 23.0874 19.9595 20.408C22.6599 17.7285 24.1651 14.087 24.1386 10.298C24.1386 10.0808 24.1335 9.86482 24.1233 9.64999C25.1123 8.94081 25.9659 8.06228 26.644 7.05566C25.7226 7.46088 24.7452 7.72692 23.7444 7.84494Z" fill="#2F313D"/>
</svg>
