<svg width="33" height="33" viewBox="0 0 33 33" fill="none" xmlns="http://www.w3.org/2000/svg">
<path d="M16.8008 25.4041H16.7739C16.6905 25.4041 8.34802 25.3881 6.24324 24.821C5.08584 24.5116 4.18197 23.6143 3.87082 22.4658C3.49234 20.3473 3.30957 18.199 3.32479 16.0476C3.31501 13.8926 3.50273 11.7412 3.88562 9.61994C4.20531 8.4704 5.10522 7.56896 6.26072 7.24078C8.30767 6.70703 16.4202 6.70703 16.7645 6.70703H16.7927C16.8774 6.70703 25.2414 6.72304 27.3247 7.29015C28.4796 7.60106 29.3817 8.49654 29.6944 9.64262C30.0849 11.769 30.2682 13.9277 30.2418 16.0889C30.2512 18.2413 30.063 20.39 29.6796 22.5085C29.3644 23.6556 28.46 24.5509 27.3031 24.861C25.2589 25.3987 17.1451 25.4041 16.8008 25.4041ZM14.1109 12.0511L14.1042 20.0573L21.1139 16.0542L14.1109 12.0511Z" fill="#2F313D"/>
</svg>
